<mxfile host="app.diagrams.net" modified="2023-05-18T00:43:21.993Z" agent="Mozilla/5.0 (Windows NT 10.0; Win64; x64) AppleWebKit/537.36 (KHTML, like Gecko) Chrome/113.0.0.0 Safari/537.36" etag="BJjCGgOqly_6TUkMZ9q5" version="21.3.2" type="github">
  <diagram id="C5RBs43oDa-KdzZeNtuy" name="Page-1">
    <mxGraphModel dx="1434" dy="699" grid="0" gridSize="10" guides="1" tooltips="1" connect="1" arrows="1" fold="1" page="1" pageScale="1" pageWidth="827" pageHeight="1169" background="#ffffff" math="0" shadow="0">
      <root>
        <mxCell id="WIyWlLk6GJQsqaUBKTNV-0" />
        <mxCell id="WIyWlLk6GJQsqaUBKTNV-1" parent="WIyWlLk6GJQsqaUBKTNV-0" />
        <mxCell id="IguEvuTKmepFIFM6E3DM-0" value="Scripture" style="swimlane;fontStyle=1;align=center;verticalAlign=top;childLayout=stackLayout;horizontal=1;startSize=26;horizontalStack=0;resizeParent=1;resizeParentMax=0;resizeLast=0;collapsible=1;marginBottom=0;whiteSpace=wrap;html=1;" vertex="1" parent="WIyWlLk6GJQsqaUBKTNV-1">
          <mxGeometry x="314" y="94" width="210" height="80" as="geometry" />
        </mxCell>
        <mxCell id="IguEvuTKmepFIFM6E3DM-1" value="+ _scripture : string&lt;br&gt;+ _reference: string&lt;br&gt;+ _words: List&amp;lt;Word&amp;gt;" style="text;strokeColor=none;fillColor=none;align=left;verticalAlign=top;spacingLeft=4;spacingRight=4;overflow=hidden;rotatable=0;points=[[0,0.5],[1,0.5]];portConstraint=eastwest;whiteSpace=wrap;html=1;" vertex="1" parent="IguEvuTKmepFIFM6E3DM-0">
          <mxGeometry y="26" width="210" height="54" as="geometry" />
        </mxCell>
        <mxCell id="IguEvuTKmepFIFM6E3DM-4" value="Reference" style="swimlane;fontStyle=1;align=center;verticalAlign=top;childLayout=stackLayout;horizontal=1;startSize=26;horizontalStack=0;resizeParent=1;resizeParentMax=0;resizeLast=0;collapsible=1;marginBottom=0;whiteSpace=wrap;html=1;" vertex="1" parent="WIyWlLk6GJQsqaUBKTNV-1">
          <mxGeometry x="45" y="94" width="190" height="280" as="geometry" />
        </mxCell>
        <mxCell id="IguEvuTKmepFIFM6E3DM-5" value="+ _reference : string&lt;br&gt;+ _book : string&lt;br&gt;+ _chapter : int&lt;br&gt;+ _startVerse ; int&lt;br&gt;+ _endVerse : int" style="text;strokeColor=none;fillColor=none;align=left;verticalAlign=top;spacingLeft=4;spacingRight=4;overflow=hidden;rotatable=0;points=[[0,0.5],[1,0.5]];portConstraint=eastwest;whiteSpace=wrap;html=1;" vertex="1" parent="IguEvuTKmepFIFM6E3DM-4">
          <mxGeometry y="26" width="190" height="84" as="geometry" />
        </mxCell>
        <mxCell id="IguEvuTKmepFIFM6E3DM-6" value="" style="line;strokeWidth=1;fillColor=none;align=left;verticalAlign=middle;spacingTop=-1;spacingLeft=3;spacingRight=3;rotatable=0;labelPosition=right;points=[];portConstraint=eastwest;strokeColor=inherit;" vertex="1" parent="IguEvuTKmepFIFM6E3DM-4">
          <mxGeometry y="110" width="190" height="20" as="geometry" />
        </mxCell>
        <mxCell id="IguEvuTKmepFIFM6E3DM-7" value="+ Reference(book : string, chapter : int, verseStart : int)&lt;br&gt;+ Reference(book : string, chapter : int, verseStart : int, verseEnd : int)&lt;br&gt;&lt;br&gt;&lt;br&gt;+ string GetReference()&lt;br&gt;+ void SetReference(Reference)" style="text;strokeColor=none;fillColor=none;align=left;verticalAlign=top;spacingLeft=4;spacingRight=4;overflow=hidden;rotatable=0;points=[[0,0.5],[1,0.5]];portConstraint=eastwest;whiteSpace=wrap;html=1;" vertex="1" parent="IguEvuTKmepFIFM6E3DM-4">
          <mxGeometry y="130" width="190" height="150" as="geometry" />
        </mxCell>
        <mxCell id="IguEvuTKmepFIFM6E3DM-8" value="Word" style="swimlane;fontStyle=1;align=center;verticalAlign=top;childLayout=stackLayout;horizontal=1;startSize=26;horizontalStack=0;resizeParent=1;resizeParentMax=0;resizeLast=0;collapsible=1;marginBottom=0;whiteSpace=wrap;html=1;" vertex="1" parent="WIyWlLk6GJQsqaUBKTNV-1">
          <mxGeometry x="587" y="94" width="190" height="180" as="geometry" />
        </mxCell>
        <mxCell id="IguEvuTKmepFIFM6E3DM-9" value="+ _text : string&lt;br&gt;+ _hidden : bool" style="text;strokeColor=none;fillColor=none;align=left;verticalAlign=top;spacingLeft=4;spacingRight=4;overflow=hidden;rotatable=0;points=[[0,0.5],[1,0.5]];portConstraint=eastwest;whiteSpace=wrap;html=1;" vertex="1" parent="IguEvuTKmepFIFM6E3DM-8">
          <mxGeometry y="26" width="190" height="44" as="geometry" />
        </mxCell>
        <mxCell id="IguEvuTKmepFIFM6E3DM-10" value="" style="line;strokeWidth=1;fillColor=none;align=left;verticalAlign=middle;spacingTop=-1;spacingLeft=3;spacingRight=3;rotatable=0;labelPosition=right;points=[];portConstraint=eastwest;strokeColor=inherit;" vertex="1" parent="IguEvuTKmepFIFM6E3DM-8">
          <mxGeometry y="70" width="190" height="8" as="geometry" />
        </mxCell>
        <mxCell id="IguEvuTKmepFIFM6E3DM-11" value="+ Word(text : string)&lt;br&gt;&lt;br&gt;+ string GetWord()&lt;br&gt;+ void SetWord(text : string)&lt;br&gt;&lt;br&gt;+ void HideWord()" style="text;strokeColor=none;fillColor=none;align=left;verticalAlign=top;spacingLeft=4;spacingRight=4;overflow=hidden;rotatable=0;points=[[0,0.5],[1,0.5]];portConstraint=eastwest;whiteSpace=wrap;html=1;" vertex="1" parent="IguEvuTKmepFIFM6E3DM-8">
          <mxGeometry y="78" width="190" height="102" as="geometry" />
        </mxCell>
        <mxCell id="IguEvuTKmepFIFM6E3DM-3" value="+ Scripture (reference : string, text : string)&lt;br&gt;+ Scripture(words : List&amp;lt;Word&amp;gt;)&lt;br&gt;&lt;br&gt;&lt;br&gt;+ void DisplayScripture()&lt;br&gt;+ string GetRenderedText(reference : string, text : string)&lt;br&gt;+ void HideWords()&lt;br&gt;+ void IsCompletelyHidden()" style="text;strokeColor=#000000;fillColor=none;align=left;verticalAlign=top;spacingLeft=4;spacingRight=4;overflow=hidden;rotatable=0;points=[[0,0.5],[1,0.5]];portConstraint=eastwest;whiteSpace=wrap;html=1;" vertex="1" parent="WIyWlLk6GJQsqaUBKTNV-1">
          <mxGeometry x="314" y="174" width="210" height="170" as="geometry" />
        </mxCell>
        <mxCell id="IguEvuTKmepFIFM6E3DM-24" value="" style="endArrow=open;endFill=1;endSize=12;html=1;rounded=0;exitX=0.995;exitY=0.246;exitDx=0;exitDy=0;exitPerimeter=0;entryX=-0.024;entryY=0.221;entryDx=0;entryDy=0;entryPerimeter=0;" edge="1" parent="WIyWlLk6GJQsqaUBKTNV-1" source="IguEvuTKmepFIFM6E3DM-7" target="IguEvuTKmepFIFM6E3DM-3">
          <mxGeometry width="160" relative="1" as="geometry">
            <mxPoint x="445" y="206" as="sourcePoint" />
            <mxPoint x="605" y="206" as="targetPoint" />
          </mxGeometry>
        </mxCell>
        <mxCell id="IguEvuTKmepFIFM6E3DM-26" value="" style="endArrow=open;endFill=1;endSize=12;html=1;rounded=0;exitX=-0.026;exitY=0.069;exitDx=0;exitDy=0;exitPerimeter=0;entryX=1.005;entryY=0.639;entryDx=0;entryDy=0;entryPerimeter=0;" edge="1" parent="WIyWlLk6GJQsqaUBKTNV-1" source="IguEvuTKmepFIFM6E3DM-11" target="IguEvuTKmepFIFM6E3DM-1">
          <mxGeometry width="160" relative="1" as="geometry">
            <mxPoint x="295" y="200" as="sourcePoint" />
            <mxPoint x="455" y="200" as="targetPoint" />
          </mxGeometry>
        </mxCell>
        <mxCell id="IguEvuTKmepFIFM6E3DM-27" value="Program Flow:&lt;br&gt;&lt;br&gt;An instance of the Scripture class will display a scripture, including reference and text of verse/verses.&lt;br&gt;The user will be prompted to press enter to hide random words and re-display the scripture, or type &quot;quit&quot; to end the program&lt;br&gt;&lt;br&gt;The Reference class will store the book, chapter, starting verse, and ending verse(if mulitple verses).&lt;br&gt;The Word class will store each word in the text and it&#39;s hidden status.&lt;br&gt;The Scripture class stores the scriputre, including its reference using an instance of the Reference class and it&#39;s text &lt;br&gt;using an instance of the Word class.&lt;br&gt;&lt;br&gt;Each time the user presses enter, more words will be hidden, the console will clear, and the rendered&lt;br&gt;version of the scripture will be displayed.&lt;br&gt;&lt;br&gt;When all words in the scripture are hidden, the program will end." style="text;html=1;align=left;verticalAlign=middle;resizable=0;points=[];autosize=1;strokeColor=none;fillColor=none;" vertex="1" parent="WIyWlLk6GJQsqaUBKTNV-1">
          <mxGeometry x="63" y="401" width="679" height="214" as="geometry" />
        </mxCell>
        <mxCell id="IguEvuTKmepFIFM6E3DM-28" value="Jennifer Tompkins&lt;br&gt;&lt;div style=&quot;&quot;&gt;&lt;span style=&quot;background-color: initial;&quot;&gt;Scripture Memorizer&lt;/span&gt;&lt;/div&gt;" style="text;html=1;align=left;verticalAlign=middle;resizable=0;points=[];autosize=1;strokeColor=none;fillColor=none;" vertex="1" parent="WIyWlLk6GJQsqaUBKTNV-1">
          <mxGeometry x="39" y="23" width="126" height="41" as="geometry" />
        </mxCell>
      </root>
    </mxGraphModel>
  </diagram>
</mxfile>
